<svg width="436" height="436" version="1.1" xmlns="http://www.w3.org/2000/svg" desc="Created with imagetracer.js version 1.2.6" ><path fill="rgb(0,0,0)" stroke="rgb(0,0,0)" stroke-width="1" opacity="0" d="M 0 0 L 436 0 L 436 436 L 0 436 L 0 0 Z M 196 16 Q 189 20 179 20 L 173 24 Q 165 28 164 39 L 164 98 L 165 99 L 164 102 L 164 177 Q 167 178 165 185 L 170 202 L 180 219 Q 189 230 203 238 L 220 245 L 234 247 L 236 252 L 235 254 L 235 363 L 236 364 L 235 366 L 235 378 L 236 379 L 235 397 L 231 405 L 221 411 Q 210 412 205 409 L 197 402 L 194 392 L 194 316 L 195 315 L 194 306 L 194 304 Q 192 297 195 296 L 194 275 L 189 265 L 178 255 L 166 252 L 158 253 L 149 258 Q 139 264 136 278 Q 134 284 137 286 Q 138 292 136 292 Q 131 294 132 302 L 130 303 Q 124 308 121 316 L 121 325 L 125 333 L 137 340 L 146 340 L 155 335 L 161 325 Q 163 313 157 308 L 151 302 L 149 302 L 149 295 L 145 292 L 146 277 L 149 271 Q 153 265 161 262 Q 171 261 177 265 L 184 274 Q 187 280 185 291 L 186 292 L 185 294 L 185 354 L 186 355 L 185 357 L 185 393 Q 187 394 186 399 L 191 409 Q 197 417 208 420 L 223 420 L 232 416 L 241 406 L 245 393 L 245 247 L 253 247 L 267 243 L 287 232 Q 309 215 316 182 L 316 37 L 311 26 L 305 22 Q 298 22 296 19 L 292 19 L 290 19 Q 287 16 281 17 L 277 22 Q 275 31 281 33 L 287 33 L 290 31 Q 295 33 297 30 L 304 32 L 307 38 L 307 153 L 306 154 L 306 162 L 302 172 L 293 187 L 282 198 L 273 204 L 260 210 L 248 211 L 247 212 L 231 212 Q 227 208 220 209 L 200 199 Q 188 190 181 178 L 176 165 L 173 150 L 174 146 L 174 136 L 173 135 L 173 126 L 174 125 L 174 115 L 173 114 L 173 105 L 174 104 L 173 101 L 174 99 Q 175 94 173 93 L 173 84 L 174 83 L 174 68 L 173 67 L 174 64 L 174 62 L 174 48 L 173 47 L 174 38 L 176 34 L 181 30 L 191 31 L 194 33 L 200 33 Q 205 31 203 21 Q 201 16 196 16 Z " /><path fill="rgb(0,0,0)" stroke="rgb(0,0,0)" stroke-width="1" opacity="0" d="M 305.5 183 L 306 185.5 L 299 203.5 L 285.5 221 Q 274.7 231.2 258.5 236 L 248.5 238 L 230.5 238 L 215.5 234 L 203.5 228 L 188 213.5 L 179 199.5 L 178 192 L 179.5 192 L 188 200.5 L 189.5 203 Q 200.8 212.8 216.5 218 L 239.5 222 L 250.5 220 L 252.5 220 L 264.5 218 L 277.5 212 Q 289.4 204.9 298 194.5 L 305.5 183 Z " /><path fill="rgb(0,0,0)" stroke="rgb(0,0,0)" stroke-width="1" opacity="0" d="M 176.5 188 L 177 190.5 L 176 190.5 L 176.5 188 Z " /><path fill="rgb(0,0,0)" stroke="rgb(0,0,0)" stroke-width="1" opacity="0" d="M 131.5 310 L 132 311.5 L 128.5 316 L 128 314.5 L 131.5 310 Z " /><path fill="rgb(0,0,0)" stroke="rgb(0,0,0)" stroke-width="1" opacity="0" d="M 127.5 318 L 128 321.5 L 127 321.5 L 127.5 318 Z " /><path fill="rgb(0,0,0)" stroke="rgb(0,0,0)" stroke-width="1" opacity="0" d="M 130.5 328 L 132.5 331 L 130.5 328 Z " /><path fill="rgb(153,202,210)" stroke="rgb(153,202,210)" stroke-width="1" opacity="0.8117647058823529" d="M 195.5 16 Q 201.1 16.5 203 20.5 Q 205.3 30.8 199.5 33 L 193.5 33 L 190.5 31 L 180.5 30 L 176 33.5 L 174 37.5 L 173 46.5 L 174 47.5 L 174 61.5 L 174 63.5 L 173 66.5 L 174 67.5 L 174 82.5 L 173 83.5 L 173 92.5 Q 175.3 93.8 174 98.5 L 173 100.5 L 174 103.5 L 173 104.5 L 173 113.5 L 174 114.5 L 174 124.5 L 173 125.5 L 173 134.5 L 174 135.5 L 174 145.5 L 173 149.5 L 176 164.5 L 181 177.5 Q 188.3 190.3 199.5 199 L 219.5 209 Q 227 208.5 230.5 212 L 246.5 212 L 247.5 211 L 259.5 210 L 272.5 204 L 281.5 198 L 293 186.5 L 302 171.5 L 306 161.5 L 306 153.5 L 307 152.5 L 307 37.5 L 304 32 L 296.5 30 Q 295 32.5 289.5 31 L 286.5 33 L 280.5 33 Q 275.5 30.5 277 21.5 L 280.5 17 Q 287.2 15.8 289.5 19 L 291.5 19 L 295.5 19 Q 298.5 22 304.5 22 L 311 26 L 316 36.5 L 316 181.5 Q 309.5 215 286.5 232 L 266.5 243 L 252.5 247 L 245 247 L 245 392.5 L 241 405.5 L 231.5 416 L 222.5 420 L 207.5 420 Q 196.9 416.6 191 408.5 L 186 398.5 Q 187.3 393.8 185 392.5 L 185 356.5 L 186 354.5 L 185 353.5 L 185 293.5 L 186 291.5 L 185 290.5 Q 186.8 279.8 184 273.5 L 176.5 265 Q 171.3 260.7 160.5 262 Q 153.1 264.6 149 270.5 L 146 276.5 L 145 292 L 149 294.5 L 149 301.5 L 150.5 302 L 157 307.5 Q 162.5 312.5 161 324.5 L 154.5 335 L 145.5 340 L 136.5 340 L 125 332.5 L 121 324.5 L 121 315.5 Q 123.5 307.5 129.5 303 L 132 301.5 Q 130.9 293.9 135.5 292 Q 138.5 292.5 137 285.5 Q 134.3 283.8 136 277.5 Q 139 264.5 148.5 258 L 157.5 253 L 165.5 252 L 177.5 255 L 189 264.5 L 194 274.5 L 195 295.5 Q 192.3 297.3 194 303.5 L 194 305.5 L 195 314.5 L 194 315.5 L 194 391.5 L 197 401.5 L 204.5 409 Q 210.3 412.3 220.5 411 L 231 405 L 235 396.5 L 236 378.5 L 235 377.5 L 235 365.5 L 236 363.5 L 235 362.5 L 235 253.5 L 236 251.5 L 233.5 247 L 219.5 245 L 202.5 238 Q 189.4 230.1 180 218.5 L 170 201.5 L 165 184.5 Q 166.8 178.3 164 176.5 L 164 101.5 L 165 98.5 L 164 97.5 L 164 38.5 Q 165.5 28.5 172.5 24 L 178.5 20 Q 189.2 20.2 195.5 16 Z M 306 183 L 298 195 Q 289 205 278 212 L 265 218 L 253 220 L 251 220 L 240 222 L 217 218 Q 201 213 190 203 L 188 201 L 180 192 L 178 192 L 179 200 L 188 214 L 204 228 L 216 234 L 231 238 L 249 238 L 259 236 Q 275 231 286 221 L 299 204 L 306 186 L 306 183 Z M 177 188 L 176 191 L 177 191 L 177 188 Z M 132 310 L 130 313 L 132 312 L 132 310 Z M 130 313 L 128 316 L 130 315 L 130 313 Z M 128 318 L 127 322 L 128 322 L 128 318 Z " /></svg>